# xmcd
#
# Track frame offsets:
#	150
#	8772
#	20915
#	34734
#	52006
#	67189
#	79673
#	96758
#	109671
#	127458
#	143923
#	158992
#	179972
#	192613
#	200697
#	218170
#	234218
#	258802
#	276663
#	291882
#
# Disc length: 4080 seconds
#
# Revision: 0
# Processed by: cddbd v1.5.2PL0 Copyright (c) Steve Scherf et al.
# Submitted via: EZCDAudioConverter 2.1.7.1
#
DISCID=410fee14
DTITLE=Wilco - Alpha Mike Foxtrot 2/4
DYEAR=1900
DGENRE=
TTITLE0=Wilco - Passenger Side [Live]
TTITLE1=Wilco - Outtasite (Outta Mind) [Live]
TTITLE2=Wilco - I Got You (At The End Of The Century) [Live]
TTITLE3=Wilco - Outta Mind (Outta Site) [Live]
TTITLE4=Wilco and Roger McGuinn - James Alley Blues [Live]
TTITLE5=Wilco - At My Window Sad And Lonely [Jeff Tweedy Solo]
TTITLE6=Wilco - California Stars [Live]
TTITLE7=Wilco - One Hundred Years From Now
TTITLE8=Wilco - A Shot In The Arm [Remix]
TTITLE9=Wilco - ELT [King Size Demo]
TTITLE10=Wilco - Nothing'severgonnastandinmyway (Again) [David Kahne Remix]
TTITLE11=Wilco - She's A Jar [Austin Demo]
TTITLE12=Wilco - Tried And True
TTITLE13=Wilco - Student Loan Stereo
TTITLE14=Wilco - True Love Will Find You In The End
TTITLE15=Wilco - I'm Always In Love [Solo Acoustic Live]
TTITLE16=Wilco - Via Chicago [Austin Demo]
TTITLE17=Wilco - Can't Stand It [Live]
TTITLE18=Wilco - Airline To Heaven [Alternate]
TTITLE19=Wilco - Any Major Dude Will Tell You
EXTD=
EXTT0=
EXTT1=
EXTT2=
EXTT3=
EXTT4=
EXTT5=
EXTT6=
EXTT7=
EXTT8=
EXTT9=
EXTT10=
EXTT11=
EXTT12=
EXTT13=
EXTT14=
EXTT15=
EXTT16=
EXTT17=
EXTT18=
EXTT19=
PLAYORDER=
